<svg xmlns="http://www.w3.org/2000/svg" viewBox="0 0 248 248">
  <path fill="#FF9900" d="M124 144.127c-11.591 0-21-9.401-21-21 0-11.599 9.409-21 21-21 11.599 0 21 9.401 21 21 0 11.599-9.401 21-21 21"/>
  <path fill="#FF9900" d="M124 71.127c-28.703 0-52 23.291-52 52 0 28.715 23.297 52 52 52 28.709 0 52-23.285 52-52 0-28.709-23.291-52-52-52m36.158 62.735c.506-3.354.767-6.818.767-10.334 0-3.52-.261-6.975-.767-10.334l14.349-11.763a3.42 3.42 0 00.825-4.383l-13.85-23.989a3.426 3.426 0 00-4.231-1.506l-16.709 6.733a77.779 77.779 0 00-17.519-10.138l-2.594-17.721A3.434 3.434 0 00117.091 48h-27.71a3.427 3.427 0 00-3.336 2.655l-2.583 17.667a73.311 73.311 0 00-17.639 10.187l-16.589-6.843a3.379 3.379 0 00-4.233 1.512l-13.831 23.971a3.428 3.428 0 00.806 4.378l14.349 11.707c-.506 3.41-.767 6.903-.767 10.423 0 3.516.261 7.009.767 10.425L31.996 146.85a3.418 3.418 0 00-.825 4.379l13.85 23.993a3.428 3.428 0 004.23 1.512l16.714-6.737a77.648 77.648 0 0017.519 10.138l2.589 17.717a3.427 3.427 0 003.339 2.659h27.713a3.427 3.427 0 003.339-2.655l2.583-17.671a73.481 73.481 0 0017.634-10.183l16.586 6.837a3.429 3.429 0 004.234-1.511l13.848-24a3.427 3.427 0 00-.819-4.371L160.158 133.862z"/>
</svg>
