<svg xmlns="http://www.w3.org/2000/svg" viewBox="0 0 128 128">
  <path fill="#5B4282" d="M9.531 112.586h4.161c1.896 0 3.273.27 4.129.81.857.54 1.285 1.398 1.285 2.575 0 .799-.188 1.454-.563 1.966s-.874.82-1.496.924v.091c.848.189 1.459.543 1.834 1.061s.563 1.207.563 2.067c0 1.22-.44 2.171-1.322 2.854-.881.683-2.078 1.024-3.59 1.024h-5.001v-13.372zm2.835 5.296h1.646c.768 0 1.325-.119 1.669-.356.345-.238.518-.631.518-1.18 0-.52-.186-.887-.557-1.106-.371-.218-.998-.328-1.881-.328h-1.395v2.97zm0 2.25v3.507h1.937c.771 0 1.336-.16 1.695-.481.36-.32.54-.815.54-1.485 0-1.361-.79-2.041-2.37-2.041h-1.802zM34.038 122.869c-.998 1.652-2.722 2.478-5.172 2.478-2.451 0-4.175-.826-5.172-2.478-.998-1.652-1.497-4.244-1.497-7.776 0-3.531.499-6.124 1.497-7.776.997-1.652 2.721-2.478 5.172-2.478 2.45 0 4.174.826 5.172 2.478.998 1.652 1.497 4.245 1.497 7.776 0 3.532-.499 6.124-1.497 7.776zm-8.652-2.706c.581 1.121 1.758 1.681 3.48 1.681 1.721 0 2.898-.56 3.48-1.681.581-1.12.872-2.982.872-5.586 0-2.604-.291-4.466-.872-5.587-.582-1.12-1.759-1.68-3.48-1.68-1.722 0-2.899.56-3.48 1.68-.582 1.121-.873 2.983-.873 5.587 0 2.604.291 4.466.873 5.586zM49.910 113.913c-1.145-.52-2.505-.78-4.081-.78-.237 0-.515.016-.833.046a3.604 3.604 0 00-.748.12v11.45h-2.835v-13.372h2.835v1.211c.581-.5 1.207-.875 1.878-1.124.672-.25 1.405-.374 2.199-.374.309 0 .527.013.656.036.128.023.288.07.482.139l.026 2.648zM61.711 111.688v13.923c0 2.301-.596 3.996-1.787 5.084s-3.063 1.632-5.615 1.632c-.61 0-1.297-.055-2.062-.165s-1.491-.266-2.183-.466l.311-2.371a12.876 12.876 0 004.146.71c1.573 0 2.701-.349 3.382-1.047.682-.698 1.023-1.82 1.023-3.368v-1.331c-.446.727-1.04 1.28-1.787 1.662-.746.382-1.613.573-2.598.573-1.697 0-3.037-.628-4.019-1.884-.983-1.256-1.475-3.031-1.475-5.326 0-2.295.486-4.063 1.458-5.304.971-1.241 2.312-1.861 4.021-1.861.948 0 1.812.182 2.594.547.782.364 1.421.899 1.916 1.602v-1.711h2.675zm-9.993 6.721c0 1.473.293 2.619.879 3.437.585.818 1.464 1.227 2.638 1.227.91 0 1.7-.269 2.371-.808.67-.539 1.116-1.253 1.337-2.143v-3.904c-.21-.851-.649-1.55-1.318-2.098-.669-.549-1.464-.824-2.388-.824-1.174 0-2.052.408-2.636 1.223-.583.815-.875 1.972-.875 3.471l-.008.419zM77.394 125.348h-2.835v-1.211c-.61.5-1.249.875-1.916 1.124-.666.25-1.359.374-2.079.374-.38 0-.637-.013-.769-.036-.133-.023-.308-.07-.526-.139l-.027-2.648c1.145.52 2.505.779 4.082.779.236 0 .524-.016.863-.046.34-.03.582-.074.729-.12v-11.45h2.835v13.372h-.357v.001zM89.727 112.904c-1.311 0-2.347.384-3.109 1.151-.761.767-1.196 1.811-1.304 3.132h8.469c-.096-1.321-.509-2.365-1.241-3.132-.732-.767-1.686-1.151-2.862-1.151h.047zm6.136 4.352h-10.549c.024 1.652.471 2.904 1.339 3.759.868.855 2.145 1.283 3.829 1.283 1.820 0 3.474-.338 4.96-1.014l.311 2.303c-1.583.752-3.432 1.128-5.55 1.128-2.451 0-4.342-.642-5.674-1.927-1.332-1.285-1.997-3.235-1.997-5.851 0-2.389.63-4.285 1.889-5.687 1.259-1.402 2.937-2.104 5.032-2.104 2.094 0 3.662.589 4.704 1.769 1.042 1.18 1.563 2.858 1.563 5.032 0 .328-.033.741-.1 1.242l.243.067zM110.392 125.348h-2.835v-7.776c0-2.718-1.002-4.078-3.005-4.078-.949 0-1.76.364-2.433 1.093-.673.728-1.01 1.625-1.01 2.691v8.07h-2.835v-13.373h2.835v1.957c.401-.727.981-1.275 1.741-1.644.76-.37 1.647-.557 2.662-.557 1.603 0 2.807.486 3.608 1.455.801.969 1.203 2.435 1.203 4.398v7.764h.069z" />
</svg>
