<svg xmlns="http://www.w3.org/2000/svg" viewBox="0 0 512 309">
  <path fill="#222" d="M120.81 80.561h96.568v7.676h-87.716v57.767h82.486v7.675h-82.486v63.423h88.722v7.675H120.81V80.561zm105.22 0h10.26l45.467 63.423L328.23 80.56L391.441 0l-103.85 150.65 53.983 74.127h-10.58l-48.64-67.462-48.65 67.462h-10.58l53.52-74.128-50.58-70.088zm118.898 7.676V80.56h110.048v7.676h-50.699v136.54h-8.852V88.237h-50.497zM0 80.56h11.065l152.58 228.323-63.053-84.107L9.254 91.468l-.402 133.31H0V80.56zm454.084 134.224c-1.809 0-3.165-1.4-3.165-3.212 0-1.81 1.356-3.212 3.165-3.212 1.83 0 3.165 1.401 3.165 3.212 0 1.811-1.335 3.212-3.165 3.212zm8.698-8.45h4.737c.064 2.565 1.937 4.29 4.693 4.29 3.079 0 4.823-1.854 4.823-5.325v-21.99h4.823v22.011c0 6.252-3.617 9.853-9.603 9.853-5.62 0-9.473-3.493-9.473-8.84zm25.384-.28h4.78c.409 2.953 3.294 4.828 7.45 4.828 3.875 0 6.717-2.005 6.717-4.764 0-2.371-1.809-3.794-5.921-4.764l-4.005-.97c-5.62-1.292-8.177-4.08-8.177-8.804 0-5.654 4.86-9.55 11.966-9.55 6.717 0 11.399 3.896 11.585 9.464h-4.737c-.366-3.083-2.918-4.992-6.891-4.992-3.995 0-6.654 1.941-6.654 4.764 0 2.237 1.633 3.535 5.682 4.471l3.4.841c6.355 1.463 8.99 4.08 8.99 8.934 0 6.142-4.737 10.036-12.553 10.036-7.217 0-12.164-3.723-12.632-9.494z"/>
</svg>
