<svg xmlns="http://www.w3.org/2000/svg" viewBox="0 0 512 512">
  <path fill="#306998" d="M251.172 446.633c-117.012 0-211.988-47.379-211.988-105.809 0-58.43 94.976-105.809 211.988-105.809 117.016 0 211.992 47.379 211.992 105.809 0 58.43-94.976 105.809-211.992 105.809z"/>
  <path fill="#FFD43B" d="M251.172 237.684c109.477 0 198.312 46.133 198.312 103.141 0 57.003-88.835 103.135-198.312 103.135-109.473 0-198.308-46.132-198.308-103.135 0-57.008 88.835-103.141 198.308-103.141m0-13.68c-117.012 0-211.988 52.348-211.988 116.82 0 64.477 94.976 116.82 211.988 116.82 117.016 0 211.992-52.343 211.992-116.82 0-64.472-94.976-116.82-211.992-116.82z"/>
  <path fill="#FFD43B" d="M282.227 252.254v27.804c0 20.039-17.02 36.942-35.98 36.942h-.102c-18.957 0-35.981-16.903-35.981-36.942v-41.472l-12.192-.317v41.789c0 28.709 21.421 52.18 48.071 52.18h.306c26.648 0 48.07-23.471 48.07-52.18v-41.789l-12.192 13.985z"/>
  <path fill="#306998" d="M209.96 229.394c0-27.113 23.397-33.078 41.266-33.078 17.871 0 41.273 5.965 41.273 33.078v14.189h12.191v-14.189c0-31.316-26.766-45.663-53.462-45.663-26.692 0-53.456 14.347-53.456 45.663v27.863l12.192 12.192-.004-40.055z"/>
</svg>
