<svg xmlns="http://www.w3.org/2000/svg" viewBox="0 0 128 128">
  <path fill="#DD4814" d="M64 3.246c-33.585 0-60.776 27.193-60.776 60.776 0 33.585 27.19 60.773 60.776 60.773 33.585 0 60.775-27.19 60.775-60.773 0-33.583-27.19-60.776-60.775-60.776zm0 10.989c27.413 0 49.788 22.372 49.788 49.787 0 27.413-22.375 49.787-49.788 49.787-27.412 0-49.785-22.375-49.785-49.787 0-27.415 22.373-49.787 49.785-49.787zM42.897 64.26c0 11.817 9.648 21.465 21.467 21.465 11.817 0 21.465-9.648 21.465-21.465s-9.648-21.464-21.465-21.464c-11.82 0-21.467 9.646-21.467 21.464zM64 53.084c6.14 0 11.178 5.04 11.178 11.177S70.14 75.44 64 75.44s-11.173-5.04-11.173-11.178c0-6.137 5.037-11.177 11.173-11.177zM8.615 90.851c3.703 3.703 10.096 3.703 13.798 0 3.703-3.703 3.703-10.093 0-13.798-3.702-3.703-10.095-3.703-13.798 0-3.7 3.703-3.7 10.093 0 13.798zM29.62 29.14c3.704 3.703 10.093 3.703 13.797 0 3.704-3.704 3.704-10.094 0-13.797-3.702-3.703-10.093-3.703-13.796 0-3.702 3.704-3.702 10.094 0 13.797zM98.38 29.14c3.7 3.703 10.092 3.703 13.796 0 3.7-3.704 3.7-10.094 0-13.797-3.703-3.703-10.095-3.703-13.796 0-3.704 3.704-3.704 10.094 0 13.797zM105.584 90.851c3.703 3.703 10.093 3.703 13.797 0 3.703-3.703 3.703-10.093 0-13.798-3.703-3.703-10.094-3.703-13.797 0-3.7 3.703-3.7 10.093 0 13.798z" />
</svg>
